<?xml version="1.0" standalone="no"?>
<svg version="1.0" xmlns="http://www.w3.org/2000/svg"
 width="270.000000" height="308.000000" viewBox="0 0 270.000000 308.000000"
 preserveAspectRatio="xMidYMid meet">
<g transform="translate(0.000000,308.000000) scale(0.100000,-0.100000)"
    fill="#383D48" stroke="none">
<path d="M1239 3051 c-66 -45 -83 -79 -89 -190 l-5 -95 -48 -12 c-269 -68
-518 -276 -634 -531 -54 -118 -73 -214 -83 -425 -20 -431 -86 -620 -298 -853
-65 -70 -82 -107 -82 -175 0 -78 35 -137 102 -171 36 -18 80 -19 1243 -19
1177 0 1207 0 1244 20 98 49 136 165 86 260 -7 14 -30 43 -50 65 -124 136
-168 202 -220 330 -57 143 -81 278 -95 555 -11 207 -28 294 -84 415 -117 254
-348 451 -612 523 l-69 19 -5 94 c-7 113 -23 149 -88 190 -38 24 -57 29 -107
29 -51 0 -69 -5 -106 -29z"/>
<path d="M963 335 c13 -124 103 -246 224 -303 51 -24 70 -27 158 -27 91 0 106
3 166 31 110 53 196 160 214 269 3 22 8 50 11 63 l4 22 -391 0 -392 0 6 -55z"/>
</g>
</svg>
