<svg xmlns="http://www.w3.org/2000/svg" xmlns:xlink="http://www.w3.org/1999/xlink" width="41" height="41" viewBox="0 0 41 41">
  <defs>
    <clipPath id="clip-path">
      <rect id="Rectangle_44" data-name="Rectangle 44" width="41" height="41" transform="translate(-0.261 0.164)" fill="none"/>
    </clipPath>
  </defs>
  <g id="Group_36" data-name="Group 36" transform="translate(0.261 -0.164)">
    <g id="Group_35" data-name="Group 35" clip-path="url(#clip-path)">
      <path id="Path_218" data-name="Path 218" d="M9.122,13.684H11.4a2.281,2.281,0,0,0,2.28-2.281V2.28A2.281,2.281,0,0,0,11.4,0H2.28A2.281,2.281,0,0,0,0,2.28V11.4a2.281,2.281,0,0,0,2.28,2.281H9.122ZM6.842,4.561h0a2.28,2.28,0,0,1,2.28,2.28h0a2.28,2.28,0,1,1-4.561,0h0a2.281,2.281,0,0,1,2.28-2.28" fill="#292f38"/>
      <path id="Path_219" data-name="Path 219" d="M29.649,18.245H25.087a2.281,2.281,0,0,1-2.28-2.28V2.281a2.281,2.281,0,1,0-4.561,0V15.965a2.281,2.281,0,0,1-2.281,2.28H2.28a2.281,2.281,0,0,0,0,4.561H29.649a2.281,2.281,0,0,0,0-4.561" fill="#292f38"/>
      <path id="Path_220" data-name="Path 220" d="M63.856,35.348h0a2.281,2.281,0,1,0-2.281-2.28,2.281,2.281,0,0,0,2.281,2.28" transform="translate(-25.085 -12.542)" fill="#292f38"/>
      <path id="Path_221" data-name="Path 221" d="M30.788,50.742v6.249a2.281,2.281,0,0,0,2.28,2.28h0a2.281,2.281,0,0,0,2.28-2.28v-8.53a2.281,2.281,0,0,0-2.28-2.28h0a2.281,2.281,0,0,0-2.28,2.28Z" transform="translate(-12.543 -18.813)" fill="#292f38"/>
      <path id="Path_222" data-name="Path 222" d="M4.561,46.181H2.28A2.281,2.281,0,0,0,0,48.462v9.123a2.281,2.281,0,0,0,2.28,2.28H11.4a2.281,2.281,0,0,0,2.28-2.28V48.462a2.281,2.281,0,0,0-2.28-2.281H4.561ZM6.842,55.3h0a2.281,2.281,0,0,1-2.281-2.28h0a2.281,2.281,0,0,1,4.561,0h0a2.281,2.281,0,0,1-2.28,2.28" transform="translate(0 -18.813)" fill="#292f38"/>
      <path id="Path_223" data-name="Path 223" d="M50.743,46.181H48.462a2.281,2.281,0,0,0-2.28,2.281v9.123a2.281,2.281,0,0,0,2.28,2.28h9.123a2.281,2.281,0,0,0,2.28-2.28V48.462a2.281,2.281,0,0,0-2.28-2.281H50.743Zm2.28,9.123h0a2.281,2.281,0,0,1-2.28-2.28h0a2.28,2.28,0,1,1,4.561,0h0a2.281,2.281,0,0,1-2.28,2.28" transform="translate(-18.814 -18.813)" fill="#292f38"/>
      <path id="Path_224" data-name="Path 224" d="M55.3,0H48.462a2.281,2.281,0,0,0-2.28,2.281V11.4a2.281,2.281,0,0,0,2.28,2.281h9.123a2.281,2.281,0,0,0,2.28-2.281V2.281A2.281,2.281,0,0,0,57.585,0Zm-2.28,9.123h0a2.281,2.281,0,1,1,2.28-2.28,2.281,2.281,0,0,1-2.28,2.28" transform="translate(-18.814)" fill="#292f38"/>
    </g>
  </g>
</svg>
